<?xml version="1.0" encoding="utf-8"?>
<!-- Generator: Adobe Illustrator 23.0.3, SVG Export Plug-In . SVG Version: 6.00 Build 0)  -->
<svg version="1.1" id="Capa_1" xmlns="http://www.w3.org/2000/svg" xmlns:xlink="http://www.w3.org/1999/xlink" x="0px" y="0px"
	 viewBox="0 0 126 55" style="enable-background:new 0 0 126 55;" xml:space="preserve">
<style type="text/css">
	.st0{fill:none;}
	.st1{fill:#54E4FF;}
	.st2{fill:#3FA7E8;}
</style>
<g>
	<rect x="11.85" y="18.59" class="st0" width="32.05" height="28.88"/>
	<path class="st1" d="M13.37,23.75c0-1.43,0.5-2.65,1.51-3.66c1.02-1.01,2.23-1.51,3.66-1.51h13.64v3.02H20.41
		c-0.91,0-1.61,0.25-2.1,0.74c-0.49,0.49-0.74,1.2-0.74,2.11v4.85c0,0.91,0.25,1.61,0.74,2.1c0.48,0.49,1.18,0.74,2.1,0.74h11.77
		v3.02H18.54c-1.42,0-2.64-0.5-3.66-1.51c-1.01-1.01-1.51-2.22-1.51-3.64V23.75z"/>
</g>
<g>
	<rect x="34.3" y="18.49" class="st0" width="21.34" height="19.51"/>
	<path class="st2" d="M49.62,24.99c0.86,0,1.59,0.31,2.2,0.93c0.61,0.61,0.91,1.34,0.91,2.2v3.83c0,0.86-0.3,1.59-0.91,2.2
		s-1.34,0.91-2.2,0.91h-13.8v-3.02h11.7c0.34,0,0.6-0.09,0.77-0.26s0.26-0.43,0.26-0.77v-1.96c0-0.35-0.09-0.61-0.26-0.77
		c-0.17-0.17-0.43-0.26-0.77-0.26h-8.7c-0.83,0-1.54-0.29-2.12-0.88s-0.88-1.29-0.88-2.12v-3.52c0-0.83,0.29-1.54,0.88-2.13
		c0.59-0.59,1.29-0.88,2.12-0.88h13.92v3.01H40.93c-0.31,0-0.54,0.07-0.69,0.22c-0.15,0.14-0.22,0.37-0.22,0.69v1.66
		c0,0.31,0.07,0.54,0.22,0.69c0.15,0.14,0.38,0.21,0.69,0.21H49.62z"/>
</g>
<g>
	<rect x="54.51" y="18.59" class="st0" width="72.15" height="23.27"/>
	<path d="M60.24,30.98c0,0.32,0.11,0.59,0.33,0.82c0.23,0.23,0.5,0.34,0.82,0.34h9.21v3.02H59.04c-0.84,0-1.55-0.29-2.13-0.88
		s-0.88-1.3-0.88-2.13V18.59h4.21V30.98z"/>
	<path d="M90.24,31.62c-0.01,1.08-0.37,1.94-1.08,2.59c-0.72,0.64-1.68,0.96-2.87,0.96h-9.07c-1.18,0-2.13-0.31-2.86-0.93
		c-0.73-0.63-1.09-1.45-1.09-2.46v-0.16c0-1.02,0.36-1.84,1.09-2.46s1.68-0.94,2.86-0.94h7.9c0.78,0,1.48,0.15,2.09,0.45v-0.91
		c0-0.48-0.2-0.91-0.6-1.29c-0.42-0.41-0.92-0.62-1.49-0.62H74.57v-2.1h11.72c1.07,0,2,0.38,2.78,1.13
		c0.78,0.74,1.17,1.63,1.17,2.65V31.62z M85.12,33.2c1.39,0,2.09-0.53,2.09-1.59c0-0.52-0.27-0.9-0.81-1.16
		c-0.35-0.16-0.78-0.25-1.28-0.25h-6.73c-0.51,0-0.93,0.08-1.28,0.25c-0.54,0.26-0.81,0.65-0.81,1.17v0.16
		c0,0.52,0.27,0.91,0.81,1.17c0.35,0.16,0.78,0.25,1.28,0.25H85.12z"/>
	<path d="M105.93,23.74c1.09,0,2.02,0.39,2.79,1.16s1.16,1.7,1.16,2.79v3.53c0,1.09-0.39,2.02-1.16,2.79
		c-0.77,0.77-1.7,1.16-2.79,1.16h-8.31c-1.3,0-2.41-0.46-3.33-1.37c-0.92-0.92-1.38-2.03-1.38-3.33V18.59h3.04v6.12
		c0.84-0.64,1.79-0.96,2.85-0.96H105.93z M106.84,27.93c0-0.58-0.2-1.07-0.61-1.48c-0.41-0.41-0.91-0.61-1.48-0.61h-5.96
		c-0.79,0-1.46,0.28-2.02,0.83s-0.83,1.22-0.83,2v1.56c0,0.78,0.28,1.45,0.83,2c0.55,0.56,1.23,0.84,2.02,0.84h5.96
		c0.57,0,1.06-0.21,1.48-0.62c0.41-0.41,0.61-0.9,0.61-1.48V27.93z"/>
</g>
<g>
</g>
<g>
</g>
<g>
</g>
<g>
</g>
<g>
</g>
</svg>
