<?xml version="1.0" encoding="utf-8"?>
<!-- Generator: Adobe Illustrator 23.0.3, SVG Export Plug-In . SVG Version: 6.00 Build 0)  -->
<svg version="1.1" xmlns="http://www.w3.org/2000/svg" xmlns:xlink="http://www.w3.org/1999/xlink" x="0px" y="0px"
	 viewBox="0 0 512 512" style="enable-background:new 0 0 512 512;" xml:space="preserve">
<style type="text/css">
	.st0{fill:none;stroke:#3FA7E8;stroke-width:6;stroke-miterlimit:10;}
	.st1{fill:none;stroke:#3FA7E8;stroke-width:5;stroke-miterlimit:10;}
	.st2{fill:none;stroke:#35E5FF;stroke-width:5;stroke-miterlimit:10;}
	.st3{fill:none;stroke:#45E8FF;stroke-width:5;stroke-miterlimit:10;}
	.st4{fill:none;stroke:#4AFFC9;stroke-width:5;stroke-miterlimit:10;}
	.st5{fill:none;stroke:#35E5FF;stroke-width:6;stroke-miterlimit:10;}
	.st6{fill:none;stroke:#45E8FF;stroke-width:40;stroke-miterlimit:10;}
	.st7{fill:none;stroke:#3FA7E8;stroke-width:40;stroke-miterlimit:10;}
	.st8{fill:#FFFFFF;stroke:#000000;stroke-width:40;stroke-miterlimit:10;}
	.st9{fill:#FFFFFF;stroke:#FFFFFF;stroke-miterlimit:10;}
	.st10{fill:none;stroke:#FFFFFF;stroke-width:16;stroke-miterlimit:10;}
	.st11{fill:none;stroke:#FFFFFF;stroke-width:14;stroke-miterlimit:10;}
	.st12{fill:none;stroke:#FFFFFF;stroke-width:6;stroke-miterlimit:10;}
</style>
<g id="Capa_3">
	<line class="st0" x1="39.64" y1="256.19" x2="98.87" y2="256.19"/>
	<line class="st0" x1="98.87" y1="281.34" x2="98.87" y2="225.86"/>
	<line class="st0" x1="95.89" y1="281.34" x2="150.87" y2="281.34"/>
	<circle class="st1" cx="158.39" cy="281.34" r="5.88"/>
	<line class="st0" x1="95.83" y1="226.28" x2="150.67" y2="226.28"/>
	<circle class="st1" cx="156.76" cy="226.28" r="5.88"/>
	<line class="st0" x1="125.94" y1="225.86" x2="125.94" y2="170.37"/>
	<line class="st0" x1="125.94" y1="337.51" x2="125.94" y2="282.02"/>
	<line class="st0" x1="100.11" y1="256" x2="124.23" y2="256"/>
	<circle class="st1" cx="129.27" cy="256.19" r="5.88"/>
	<line class="st0" x1="100.11" y1="198.12" x2="124.23" y2="198.12"/>
	<line class="st0" x1="125.94" y1="312.13" x2="150.06" y2="312.13"/>
	<circle class="st1" cx="94.34" cy="198.12" r="5.88"/>
	<circle class="st1" cx="154.25" cy="312.38" r="5.88"/>
	<line class="st0" x1="122.94" y1="169.54" x2="177.55" y2="169.54"/>
	<line class="st0" x1="122.57" y1="337.51" x2="177.55" y2="337.51"/>
	<circle class="st1" cx="183.93" cy="169.96" r="5.88"/>
	<line class="st0" x1="154.25" y1="170.37" x2="154.25" y2="68.04"/>
	<line class="st0" x1="150.87" y1="439.87" x2="150.87" y2="337.53"/>
	<line class="st0" x1="125.94" y1="376.6" x2="150.06" y2="376.6"/>
	<circle class="st1" cx="120.63" cy="376.6" r="5.88"/>
	<line class="st0" x1="180.13" y1="358.68" x2="180.13" y2="334.55"/>
	<circle class="st1" cx="180.13" cy="362.64" r="5.88"/>
	<line class="st0" x1="152.64" y1="402.77" x2="207.62" y2="402.77"/>
	<circle class="st1" cx="214.57" cy="402.77" r="5.88"/>
	<line class="st0" x1="130.12" y1="108.57" x2="154.25" y2="108.57"/>
	<line class="st0" x1="132.83" y1="129.74" x2="132.83" y2="105.61"/>
	<circle class="st1" cx="131.93" cy="135.08" r="5.88"/>
	<line class="st0" x1="206.49" y1="134.54" x2="206.49" y2="110.41"/>
	<circle class="st1" cx="206.49" cy="104.93" r="5.88"/>
	<line class="st0" x1="154.25" y1="131.55" x2="208.87" y2="131.55"/>
	<line class="st0" x1="47.91" y1="312.13" x2="131.93" y2="312.13"/>
	<line class="st0" x1="95.89" y1="335.82" x2="95.89" y2="311.7"/>
	<circle class="st1" cx="95.83" cy="341.03" r="5.88"/>
	<path class="st2" d="M371.04,161.17"/>
	<path class="st2" d="M362.3,232.87"/>
	<path class="st3" d="M467.87,287.06c-3.06-0.77-6.13-1.53-9.19-2.3"/>
	<path class="st3" d="M463.72,286.02"/>
	<path class="st2" d="M342.7,89.94"/>
	<path class="st2" d="M406.51,232"/>
	<path class="st4" d="M362.3,232.87"/>
	<path class="st3" d="M334.71,235.97c-18.82,3.04-33.65,16.92-37.07,34.44c-2.96,15.17,3.04,30.94,15.52,41.16"/>
	<path class="st3" d="M338.16,209.54c26.23,2.64,46.61,23.17,48.72,47.68c1.82,21.08-10.17,41.78-30.16,51.66"/>
	<path class="st3" d="M289.1,318.51c-5.63,5.06-8.53,13.45-7.33,21.11c1.3,8.29,7.15,14.15,14.38,14.27"/>
	<path class="st2" d="M450.7,259.21"/>
	<path class="st3" d="M392.84,194.26c2.3,0.9,10.99,4.52,16.11,12.36c5.57,8.54,4.64,18.62-2.44,25.38"/>
	<path class="st3" d="M362.3,329.01c5.62,5.34,15.15,12.56,27.92,14.04c34.35,3.98,58.66-37.46,61.51-42.47
		c4.11-7.23,12.64-22.72,10.81-43.23c-0.72-8.11-2.16-24.22-15.59-35.82c-14.82-12.79-33.38-10.71-36.79-10.27"/>
	<path class="st3" d="M284.89,350.74c-0.73,1.91-6.4,17.33,1.45,32.78c8.04,15.84,23.47,18.27,25.23,18.52"/>
	<path class="st3" d="M299.76,51.68c-23.91,28.7-24.94,64.95-5.36,86.94c15.43,17.33,38.79,20.36,45.96,21.04"/>
	<path class="st3" d="M303.34,149.39c-2.81,2.12-21.66,16.85-22.93,42.13c-1.08,21.39,10.86,41.96,30.57,52.85"/>
	<path class="st3" d="M338.28,96.9c1.34-0.53,29.11-10.96,50.75,6.22c1.19,0.94,17.15,14.03,17.85,34.74
		c0.17,5.15,0.48,14.47-6.26,22.4c-7.66,9.01-18.87,9.7-21.18,9.8"/>
	<path class="st3" d="M338.81,159.66c3.65,1.49,23.34,9.91,32.04,31.97c6.46,16.37,3.18,30.93,1.8,35.96"/>
	<path class="st3" d="M283.84,123.81c-0.21,0.33-5.16,8.42-3.35,19.37c1.72,10.44,7.97,13.82,8.39,14.03"/>
	<path class="st3" d="M399.16,252.03c7.06-3.12,10.63-10.22,8.51-15.5c-1.76-4.38-7.19-6.9-13.25-5.9"/>
	<path class="st3" d="M318.04,398.96c-6.76,5.57-8.44,14.79-4.57,21.26c2.89,4.84,8.59,7.62,14.66,7.38"/>
	<path class="st3" d="M317.64,153.85c0.69-2.17,5.46-16.38,19.37-21.52c1.68-0.62,15.31-5.66,24.26,2c3.07,2.63,4.56,5.87,5.31,8.03
		"/>
	<path class="st3" d="M342.96,114.7c2.4,5.16,4.81,10.31,7.21,15.47"/>
	<path class="st3" d="M304.45,463.47c-2.56-1.82-17.54-12.89-20.43-33.7c-2.92-21.04,8.76-35.88,10.72-38.3"/>
	<path class="st4" d="M344.08,118.81"/>
	<path class="st3" d="M351.64,326.11c-13.85-2.02-27.41,2.83-34.21,12.77c-11.45,16.72-1.87,42.14,14.3,50.55
		c6.85,3.56,13.56-1.22,17.87,3.06c4.58,4.54,2.65,14.06,0,21.96"/>
	<path class="st3" d="M317.43,338.87c2.53,6.46,7.27,15.37,16.34,19.91c12.2,6.11,20.34-1.64,34.21,1.53
		c20.82,4.77,40.56,30.96,34.72,50.55c-1.07,3.6-4.18,10.9-14.81,17.36"/>
	<path class="st3" d="M407.3,357.77c0.47,0.57,8.22,9.72,20.43,8.17c12.4-1.57,17.6-12.67,17.87-13.28"/>
	<path class="st3" d="M329.68,430.79c1.79-10.23,10.89-17.12,19.91-16.34c10.33,0.89,18.76,11.7,16.34,23.49"/>
	<line class="st5" x1="154.25" y1="78.96" x2="214.57" y2="78.96"/>
	<circle class="st2" cx="220.45" cy="78.96" r="5.88"/>
	<line class="st0" x1="195.38" y1="400.77" x2="195.38" y2="376.64"/>
	<line class="st0" x1="192.33" y1="375.98" x2="224.09" y2="375.98"/>
	<circle class="st1" cx="231.31" cy="376.64" r="5.88"/>
	<line class="st0" x1="177.1" y1="425.67" x2="177.1" y2="401.55"/>
	<circle class="st2" cx="178.05" cy="431.56" r="5.88"/>
	<line class="st0" x1="212.9" y1="378.53" x2="212.9" y2="287.23"/>
	<line class="st5" x1="209.91" y1="287.23" x2="238.28" y2="287.23"/>
	<circle class="st2" cx="243.05" cy="287.23" r="5.88"/>
	<line class="st5" x1="224.09" y1="289.38" x2="224.09" y2="234.76"/>
	<line class="st0" x1="213.59" y1="199.91" x2="174.79" y2="199.91"/>
	<circle class="st1" cx="167.31" cy="199.91" r="5.88"/>
	<line class="st0" x1="176.08" y1="256.19" x2="223.17" y2="256.19"/>
	<circle class="st1" cx="170.2" cy="256.19" r="5.88"/>
	<line class="st0" x1="70.36" y1="257.84" x2="70.36" y2="233.72"/>
	<circle class="st1" cx="70.36" cy="228.11" r="5.88"/>
	<line class="st0" x1="196.79" y1="157.84" x2="196.79" y2="133.72"/>
	<line class="st0" x1="193.73" y1="155.21" x2="223.79" y2="155.21"/>
	<line class="st0" x1="213.59" y1="155.61" x2="213.59" y2="192.77"/>
	<circle class="st2" cx="214.57" cy="196.88" r="5.88"/>
	<circle class="st1" cx="227.67" cy="155.21" r="5.88"/>
	<circle class="st2" cx="224.09" cy="230.08" r="5.88"/>
	<line class="st0" x1="200.84" y1="435.89" x2="200.84" y2="401.55"/>
	<line class="st5" x1="221.95" y1="434.61" x2="197.83" y2="434.61"/>
	<circle class="st1" cx="226.33" cy="434.12" r="5.88"/>
	<line class="st0" x1="238.4" y1="343.32" x2="214.27" y2="343.32"/>
	<line class="st0" x1="235.44" y1="344.94" x2="235.44" y2="320.81"/>
	<circle class="st1" cx="235.44" cy="315.27" r="5.88"/>
	<line class="st0" x1="112.17" y1="160.11" x2="112.17" y2="196.92"/>
	<line class="st0" x1="91.02" y1="161.52" x2="115.14" y2="161.52"/>
	<circle class="st1" cx="86.08" cy="161.52" r="5.88"/>
</g>
<g id="Elipse_exterior">
	<path class="st6" d="M240.55,63.27c137.62,0,249.18,87.11,249.18,194.57S378.17,452.42,240.55,452.42"/>
	<path class="st7" d="M275.16,452.42c-139.32,0-252.26-87.3-252.26-194.99S135.84,62.45,275.16,62.45"/>
	<line class="st8" x1="255.76" y1="0" x2="260.97" y2="512"/>
</g>
<g id="Capa_2">
	<g>
		<g>
			<polygon class="st9" points="268.51,189.19 246.81,189.19 251.01,172.85 265.36,172.85 			"/>
			<circle class="st10" cx="258.09" cy="256.47" r="60.79"/>
			<polygon class="st9" points="308.23,209.91 290.89,196.86 304.06,186.33 315.54,194.95 			"/>
			<polygon class="st9" points="324.73,245.01 317.28,224.63 334.06,222.96 338.99,236.45 			"/>
			<polygon class="st9" points="320.13,282.89 326.11,262.02 340.67,270.56 336.71,284.36 			"/>
			<polygon class="st9" points="294,313.86 310.86,300.19 317.89,315.53 306.74,324.57 			"/>
			<polygon class="st9" points="247.93,324.35 269.63,324.26 265.5,340.62 251.14,340.68 			"/>
			<polygon class="st9" points="208.13,300.52 224.98,314.2 211.42,324.24 200.27,315.19 			"/>
			<polygon class="st9" points="190.72,264.91 196.29,285.88 179.41,286.02 175.74,272.14 			"/>
			<polygon class="st9" points="197.63,223 190.68,243.56 176.54,234.36 181.14,220.76 			"/>
			<polygon class="st9" points="225.42,195.21 208.84,209.21 201.5,194.02 212.47,184.76 			"/>
		</g>
		<circle class="st11" cx="257.66" cy="256.19" r="9.86"/>
	</g>
	<circle class="st12" cx="258.45" cy="255.65" r="50.83"/>
	<g>
	</g>
	<g>
	</g>
	<g>
	</g>
	<g>
	</g>
	<g>
	</g>
</g>
</svg>
